
######## ######## ######## ##          ######## ########  ######## ######## 
##       ##       ##       ##          ##       ##     ## ##       ##       
##       ##       ##       ##          ##       ##     ## ##       ##       
######   ######   ######   ##          ######   ########  ######   ######   
##       ##       ##       ##          ##       ##   ##   ##       ##       
##       ##       ##       ##          ##       ##    ##  ##       ##       
##       ######## ######## ########    ##       ##     ## ######## ######## 



 #     # ####### ####### ####### 
 ##    # #     #    #    #       
 # #   # #     #    #    #       
 #  #  # #     #    #    #####   
 #   # # #     #    #    #       
 #    ## #     #    #    #       
 #     # #######    #    ####### 
                                 
This is a PPV rip, Check the screen shots before downloading. :-{


Genre:Action | Adventure | Sci-Fi
Language:English
IMDb:http://www.imdb.com/title/tt1104001/
Source:IFLIX Thx.


Format : MPEG-4
Format profile : Base Media
Codec ID : isom
File size : 1 001 MiB
Duration : 2h 3mn
Overall bit rate : 1 129 Kbps
Movie name : TRON.Legacy.2010.PPVRip.x264.Feel-Free


Video
Format settings, CABAC : Yes
Format settings, ReFrames : 4 frames
Codec ID : avc1
Codec ID/Info : Advanced Video Coding
Duration : 2h 3mn
Bit rate mode : Variable
Bit rate : 957 Kbps
Width : 704 pixels
Height : 380 pixels
Display aspect ratio : 1.853
Frame rate mode : Constant
Frame rate : 29.970 fps
Color space : YUV
Chroma subsampling : 4:2:0
Bit depth : 8 bits
Scan type : Progressive
Bits/(Pixel*Frame) : 0.119
Stream size : 861 MiB (86%)
Writing library : x264

Audio
ID : 2
Format : AAC
Format/Info : Advanced Audio Codec
Format version : Version 4
Format profile : LC
Codec ID : 40
Duration : 2h 3mn
Bit rate mode : Variable
Bit rate : 152 Kbps
Channel(s) : 2 channels
Channel positions : Front: L R
Sampling rate : 44.1 KHz
Stream size : 135 MiB (13%)


Plot:
A virtual-world worker looks to take down the Master Control Program






================================== 
http://thepiratebay.org/user/hiest
==================================






Screen Shots:
 
http://www.postimg.com/29000/28992.jpg
 
http://www.postimg.com/29000/28993.jpg
 
http://www.postimg.com/29000/28994.jpg
 
http://www.postimg.com/29000/28995.jpg
 
http://www.postimg.com/29000/28996.jpg


######## ######## ######## ##          ######## ########  ######## ######## 
##       ##       ##       ##          ##       ##     ## ##       ##       
##       ##       ##       ##          ##       ##     ## ##       ##       
######   ######   ######   ##          ######   ########  ######   ######   
##       ##       ##       ##          ##       ##   ##   ##       ##       
##       ##       ##       ##          ##       ##    ##  ##       ##       
##       ######## ######## ########    ##       ##     ## ######## ######## 
